<svg width="20" height="16" viewBox="0 0 20 16" fill="none" xmlns="http://www.w3.org/2000/svg">
<path d="M19.305 0.924566C18.3784 -0.001955 16.8707 -0.001955 15.9442 0.924566L7.167 9.70165L4.05556 6.59016C3.129 5.66364 1.62132 5.66364 0.694756 6.59016C-0.231809 7.51673 -0.231809 9.0244 0.694756 9.95097L6.05346 15.3097C6.36049 15.6167 6.76374 15.7702 7.167 15.7702C7.5703 15.7702 7.97356 15.6167 8.28059 15.3097L19.305 4.28528C20.2315 3.35876 20.2315 1.85118 19.305 0.924566ZM18.4435 3.42386L7.41908 14.4483C7.28015 14.5873 7.05394 14.5873 6.91501 14.4483L1.55631 9.08959C1.10474 8.63802 1.10474 7.90333 1.55631 7.45176C1.78207 7.22591 2.07859 7.11307 2.3752 7.11307C2.67181 7.11307 2.96838 7.22595 3.1941 7.45176L6.39495 10.6526C6.60121 10.8588 6.87547 10.9724 7.16705 10.9724C7.45876 10.9724 7.73301 10.8588 7.93923 10.6526L16.8057 1.78603C17.2571 1.33446 17.9919 1.33446 18.4435 1.78603C18.895 2.2376 18.895 2.97229 18.4435 3.42386Z" fill="#5569B8"/>
</svg>
