<svg width="24" height="24" viewBox="0 0 24 24" xmlns="http://www.w3.org/2000/svg" class="list-item__icon">
<path d="M22.8 7.2C23.0209 7.2 23.2 7.0209 23.2 6.8V3.6C23.1978 1.6127 21.5873 0.0022 19.6 0H4.40005C2.41275 0.0022 0.802249 1.6127 0.800049 3.6V6.8C0.800049 7.0209 0.979149 7.2 1.20005 7.2H2.40005V20H1.20005C0.979149 20 0.800049 20.1791 0.800049 20.4V22C0.801349 23.104 1.69605 23.9987 2.80005 24H21.2C22.304 23.9987 23.1987 23.104 23.2 22V20.4C23.2 20.1791 23.0209 20 22.8 20H21.6V7.2H22.8ZM22.4 20.8V22C22.4 22.6628 21.8628 23.2 21.2 23.2H2.80005C2.1373 23.2 1.60005 22.6628 1.60005 22V20.8H22.4ZM8.40005 9.6H9.20005V10.8C9.20005 11.0209 9.37915 11.2 9.60005 11.2H11.2C11.4209 11.2 11.6 11.0209 11.6 10.8V9.6H12.8V10.8C12.8 11.0209 12.9791 11.2 13.2 11.2H14.8C15.0209 11.2 15.2 11.0209 15.2 10.8V9.6H15.6C15.8209 9.6 16 9.4209 16 9.2V7.2H20.8V20H12.8C14.7873 19.9978 16.3978 18.3873 16.4 16.4V16H17.2C18.0837 16 18.8 15.2837 18.8 14.4C18.8 13.5163 18.0837 12.8 17.2 12.8H16.4V12.4C16.4 12.1791 16.2209 12 16 12H8.00005C7.77915 12 7.60005 12.1791 7.60005 12.4V16.4C7.60225 18.3873 9.21275 19.9978 11.2 20H3.20005V7.2H8.00005V9.2C8.00005 9.4209 8.17915 9.6 8.40005 9.6ZM8.80005 8.8V7.2H15.2V8.8H8.80005ZM14.4 9.6V10.4H13.6V9.6H14.4ZM10.8 9.6V10.4H10V9.6H10.8ZM11.2 19.2C9.6545 19.198 8.40205 17.9456 8.40005 16.4V12.8H15.6V16.4C15.598 17.9456 14.3456 19.198 12.8 19.2H11.2ZM16.4 15.2V13.6H17.2C17.6419 13.6 18 13.9581 18 14.4C18 14.8419 17.6419 15.2 17.2 15.2H16.4ZM1.60005 6.4V3.6C1.60205 2.05445 2.8545 0.802 4.40005 0.8H19.6C21.1456 0.802 22.398 2.05445 22.4 3.6V6.4H1.60005Z" />
<path d="M2.80015 22.4H21.2001C21.421 22.4 21.6001 22.2209 21.6001 22C21.6001 21.7791 21.421 21.6 21.2001 21.6H2.80015C2.57925 21.6 2.40015 21.7791 2.40015 22C2.40015 22.2209 2.57925 22.4 2.80015 22.4Z" />
<path d="M16.8 1.59998H7.20005C6.97915 1.59998 6.80005 1.77908 6.80005 1.99998V5.19998C6.80005 5.42088 6.97915 5.59998 7.20005 5.59998H16.8C17.0209 5.59998 17.2 5.42088 17.2 5.19998V1.99998C17.2 1.77908 17.0209 1.59998 16.8 1.59998ZM16.4 4.79998H7.60005V2.39998H16.4V4.79998Z" />
</svg>
