<svg width="24" height="24" viewBox="0 0 24 24" xmlns="http://www.w3.org/2000/svg" class="list-item__icon">
<path d="M3.20001 4.61475H5.60002C5.84002 4.61475 6 4.77473 6 5.01473C6 5.25472 5.84002 5.4147 5.60002 5.4147H3.20001C2.96001 5.4147 2.80003 5.25472 2.80003 5.01473C2.80003 4.77473 2.96001 4.61475 3.20001 4.61475Z"/>
<path d="M3.20001 6.21484H5.60002C5.84002 6.21484 6 6.37483 6 6.61482C6 6.85482 5.84002 7.0148 5.60002 7.0148H3.20001C2.96001 7.0148 2.80003 6.85482 2.80003 6.61482C2.80003 6.37483 2.96001 6.21484 3.20001 6.21484Z"/>
<path d="M2.48003 2.65485C4.72001 2.13487 7.96002 2.01483 10.2 2.45484L10.56 2.53485C11.08 2.61487 11.6 2.73487 12.12 2.81483L12.8728 2.93488C12.8752 2.93488 12.8776 2.93483 12.8799 2.93483L14.8799 3.25484C15.623 3.35616 16.195 3.91388 16.3549 4.61486H17.9999C18.88 4.61486 19.5999 5.33485 19.5999 6.21487H23.6C23.84 6.21487 24 6.37485 24 6.61484C24 6.85484 23.84 7.01482 23.6 7.01482H19.6C19.6 7.89484 18.8801 8.61483 18 8.61483H16.355C16.2777 8.95348 16.1043 9.25862 15.8619 9.49509C15.5961 9.75739 15.2453 9.94434 14.84 10.0148L10.8801 10.6148C10.1504 10.804 9.23801 10.9199 8.26664 10.9753L7.60007 13.9748C7.56009 14.1748 7.40005 14.2948 7.20009 14.2948H6.40009V16.8548L8.61162 19.0664C8.70793 19.1199 8.77284 19.2125 8.79314 19.3319C8.80077 19.3659 8.8032 19.401 8.8001 19.4367V21.0148C8.8001 21.4548 8.44011 21.8148 8.0001 21.8148H2.00008C1.56007 21.8148 1.20008 21.4548 1.20008 21.0148V19.4148C1.20008 19.3076 1.23215 19.2165 1.28886 19.1484L2.00008 17.0148V13.8147L2.21882 10.4974C0.916 10.0515 9.53674e-05 8.80365 9.53674e-05 7.41475V5.81474C0 4.33483 1.00002 3.05483 2.48003 2.65485ZM14.72 4.05485L13.2 3.81252V9.44882L14.76 9.21482C15.24 9.13481 15.6 8.69485 15.6 8.21481V5.01479C15.6 4.53484 15.24 4.09483 14.72 4.05485ZM18.8 7.01482V6.21482C18.8 5.77481 18.44 5.41481 18 5.41481H16.4V7.81483H18C18.44 7.81483 18.8 7.45483 18.8 7.01482ZM2.80004 13.8148V16.6148H5.60003V13.8949V13.8949V10.9816C4.67403 10.9326 3.77585 10.8304 2.99824 10.6834L2.80004 13.8148ZM6.88003 13.4948L7.40001 11.0948C7.08 11.0948 6.72 11.0948 6.39999 11.0948V13.4948H6.88003ZM5.84003 17.4148H2.68004L2.16006 19.0148H7.43999L5.84003 17.4148ZM2.00004 21.0148H8V19.8148H1.99999V21.0148H2.00004ZM0.840034 7.4148C0.840034 8.53482 1.60006 9.4948 2.72003 9.77478C4.96001 10.3348 8.56001 10.3748 10.76 9.81477L12.4 9.56877V3.68499L11.96 3.61484C11.44 3.53482 10.88 3.45486 10.36 3.33486L9.99999 3.25484C9.11997 3.09486 8.07997 3.01485 6.96 3.01485C5.44 3.01485 3.83999 3.13484 2.67999 3.45486C1.60001 3.73484 0.839989 4.69487 0.839989 5.81484V7.4148H0.840034Z"/>
</svg>
