<svg width="24" height="24" viewBox="0 0 24 24" fill="none" xmlns="http://www.w3.org/2000/svg">
<path d="M21.599 4.80066H2.40088V16.7995H21.599V4.80066ZM20.799 15.9995H3.2008V5.60058H20.799V15.9995Z" fill="none"/>
<path d="M23.1989 17.5993V4.40068C23.1989 3.738 22.6617 3.20081 21.999 3.20081H2.00102C1.33834 3.20081 0.801141 3.738 0.801141 4.40068V17.5993H0.0012207V18.7992C0.00252057 19.9031 0.897131 20.7977 2.00102 20.799H21.999C23.1029 20.7977 23.9975 19.9031 23.9988 18.7992V17.5993H23.1989ZM1.60106 4.40068C1.60106 4.17981 1.78014 4.00072 2.00102 4.00072H21.999C22.2199 4.00072 22.399 4.17981 22.399 4.40068V17.5993H13.5999V17.9993C13.5999 18.2202 13.4208 18.3993 13.1999 18.3993H10.8001C10.5793 18.3993 10.4002 18.2202 10.4002 17.9993V17.5993H1.60106V4.40068ZM23.1989 18.7992C23.1989 19.4619 22.6617 19.9991 21.999 19.9991H2.00102C1.33834 19.9991 0.801141 19.4619 0.801141 18.7992V18.3993H9.66865C9.67345 18.4133 9.68105 18.4257 9.68665 18.4393C9.69505 18.4605 9.70425 18.4793 9.71385 18.5012C9.735 18.5465 9.75894 18.5905 9.78544 18.6328C9.79744 18.6516 9.80864 18.6708 9.82184 18.6892C9.85569 18.7369 9.89298 18.7821 9.93343 18.8244C9.94183 18.8328 9.94823 18.8424 9.95662 18.8508C10.0062 18.8996 10.0597 18.9441 10.1166 18.984C10.1326 18.9948 10.1498 19.004 10.1666 19.0144C10.2101 19.0418 10.2554 19.0664 10.3022 19.088C10.3242 19.098 10.3462 19.1068 10.3686 19.1156C10.4158 19.1335 10.464 19.1486 10.513 19.1608C10.535 19.166 10.5562 19.1724 10.5786 19.1764C10.6516 19.191 10.7257 19.1986 10.8001 19.1992H13.1999C13.2739 19.1987 13.3477 19.1912 13.4203 19.1768C13.4427 19.1728 13.4639 19.1664 13.4859 19.1608C13.5349 19.1489 13.5831 19.134 13.6303 19.116C13.6527 19.1072 13.6747 19.0984 13.6967 19.0884C13.7434 19.0668 13.7887 19.0422 13.8322 19.0148C13.849 19.0044 13.8662 18.9952 13.8822 18.9844C13.9392 18.9445 13.9927 18.9 14.0422 18.8512C14.0506 18.8428 14.057 18.8332 14.0654 18.8248C14.1059 18.7825 14.1432 18.7373 14.177 18.6896C14.1902 18.6712 14.2014 18.652 14.2134 18.6332C14.2398 18.5908 14.2635 18.5469 14.2846 18.5016C14.2942 18.4809 14.3038 18.4617 14.3126 18.4393C14.3178 18.4257 14.3254 18.4133 14.3302 18.3993H23.1989V18.7992Z" fill="none"/>
</svg>
