<svg width="26" height="32" viewBox="0 0 26 32" fill="none" xmlns="http://www.w3.org/2000/svg">
<path d="M13.0001 -0.0666504C6.22846 -0.0590983 0.740951 5.42841 0.733398 12.2C0.733398 18.8133 12.1227 31.2357 12.6082 31.7618C12.7089 31.8711 12.8511 31.9334 13.0001 31.9334C13.149 31.9334 13.291 31.8711 13.392 31.7618C13.8774 31.2357 25.2668 18.8133 25.2668 12.2C25.2592 5.42841 19.7717 -0.0590983 13.0001 -0.0666504ZM13.0001 30.6037C10.9735 28.3329 1.80007 17.742 1.80007 12.2C1.80007 6.01435 6.81439 1.00002 13.0001 1.00002C19.1858 1.00002 24.2001 6.01435 24.2001 12.2C24.2001 17.742 15.0266 28.3329 13.0001 30.6037Z" fill="#E59746"/>
</svg>
