<svg width="24" height="24" viewBox="0 0 24 24" xmlns="http://www.w3.org/2000/svg" class="list-item__icon">
<path d="M17.6364 12.687C17.5965 12.5271 17.4365 12.4071 17.2767 12.4071C14.9931 12.4071 13.2825 15.4563 12.3631 18.6784C12.4674 16.8983 12.7131 15.6202 12.9194 14.5658C13.0482 13.8704 13.1602 13.2663 13.1997 12.6839C17.5178 11.5975 18.275 7.79519 18.2361 7.25037C18.2361 7.13045 18.1961 7.05048 18.1162 6.97056C18.0362 6.9306 17.9563 6.8906 17.8364 6.8906C15.7535 7.04373 13.6002 7.99494 12.7613 10.1218C12.5829 9.70359 12.3433 9.25448 12.0286 8.75693C12.9501 3.07693 8.59328 0.291908 7.72261 0.014862C7.56272 -0.0250974 7.40279 0.014862 7.28287 0.134787C6.92309 0.534522 6.44339 2.45332 6.96305 4.45209C7.35553 5.98282 8.44188 8.05293 11.3189 9.14917C12.053 10.2829 12.3467 11.087 12.4016 11.9051C12.395 12.0679 12.3942 12.2351 12.3996 12.4071C12.3996 12.4263 12.4016 12.4455 12.4046 12.4646C12.3763 13.034 12.2606 13.6454 12.1198 14.4059C11.922 15.4389 11.6759 16.6895 11.5542 18.3967C10.617 15.2808 8.94013 12.4071 6.7232 12.4071C6.56332 12.4071 6.40339 12.527 6.36343 12.6869C5.20414 16.0448 5.40403 19.2428 6.96305 21.4414C8.12234 23.0804 9.96118 23.9998 11.9999 23.9998C14.0386 23.9998 15.8775 23.0804 17.0368 21.4414C18.5958 19.2828 18.7957 16.0848 17.6364 12.687ZM7.80257 4.53205C7.36283 3.01299 7.56272 1.57389 7.76262 0.974262C8.70754 1.50343 11.546 3.49826 11.3457 7.56621L10.1211 5.17164C10.0411 4.97175 9.80129 4.89183 9.60145 5.01175C9.40156 5.09172 9.32164 5.33157 9.44157 5.53141L10.7154 8.02253C9.23685 7.24569 8.2656 6.06358 7.80257 4.53205ZM17.3966 7.77003C17.1859 8.61274 16.4815 10.504 14.2272 11.5205L15.5577 10.1685C15.7176 10.0086 15.7176 9.7688 15.5577 9.60887C15.3978 9.44893 15.158 9.44898 14.998 9.60887L13.249 11.3861C13.6507 8.68221 16.0757 7.95873 17.3966 7.77003ZM7.60268 20.9618C6.24355 19.0829 6.04366 16.2447 7.00306 13.2466C9.32244 13.609 11.0832 18.6039 11.5112 22.1253C11.5248 22.4574 11.5431 22.8016 11.5663 23.1583C9.94202 23.069 8.55548 22.2718 7.60268 20.9618ZM16.3972 21.0017C15.4399 22.318 14.0449 23.077 12.4106 23.1994C12.4085 23.1691 12.4065 23.139 12.4045 23.1088C12.5922 19.5789 14.4604 13.6429 16.9968 13.2466C17.9562 16.2447 17.7564 19.0829 16.3972 21.0017Z"/>
</svg>
