<svg width="32" height="32" viewBox="0 0 32 32" fill="none" xmlns="http://www.w3.org/2000/svg">
<path d="M31.8308 30.9789L23.1081 22.2562C28.0586 16.8353 27.6772 8.42759 22.2562 3.47709C16.8353 -1.47341 8.42759 -1.09197 3.47709 4.32899C-1.47341 9.74995 -1.09197 18.1576 4.32899 23.1081C9.40556 27.7441 17.1797 27.7441 22.2562 23.1081L30.9789 31.8308C31.2183 32.062 31.5996 32.0554 31.8308 31.8161C32.0564 31.5826 32.0564 31.2124 31.8308 30.9789ZM13.3305 25.3801C6.67889 25.3725 1.2885 19.9821 1.2809 13.3305C1.2809 6.67565 6.67565 1.2809 13.3305 1.2809C19.9853 1.2809 25.3801 6.67565 25.3801 13.3305C25.3801 19.9853 19.9853 25.3801 13.3305 25.3801Z" fill="#E59746"/>
</svg>
