<svg width="24" height="24" viewBox="0 0 24 24" xmlns="http://www.w3.org/2000/svg" class="list-item__icon">
<path d="M22.8 2.59998H1.2C0.53725 2.59998 0 3.13723 0 3.79998V17.8C0 18.4627 0.53725 19 1.2 19H6V20.6H4.4C4.1791 20.6 4 20.7791 4 21C4 21.2209 4.1791 21.4 4.4 21.4H20.4C20.6209 21.4 20.8 21.2209 20.8 21C20.8 20.7791 20.6209 20.6 20.4 20.6H18V19H22.8C23.4627 19 24 18.4627 24 17.8V3.79998C24 3.13723 23.4627 2.59998 22.8 2.59998ZM17.2 20.6H6.8V19H17.2V20.6ZM23.2 17.8C23.2 18.0209 23.0209 18.2 22.8 18.2H1.2C0.9791 18.2 0.8 18.0209 0.8 17.8V17.4H23.2V17.8ZM23.2 16.6H0.8V4.99998H23.2V16.6ZM23.2 4.19998H0.8V3.79998C0.8 3.57908 0.9791 3.39998 1.2 3.39998H22.8C23.0209 3.39998 23.2 3.57908 23.2 3.79998V4.19998Z"/>
</svg>
