<svg width="24" height="24" viewBox="0 0 24 24" xmlns="http://www.w3.org/2000/svg" class="list-item__icon">
<path d="M20.374 0H3.6258C2.62741 0 1.81519 0.812229 1.81519 1.81061V23.5473C1.81519 23.7973 2.01786 24 2.26784 24H21.7319C21.9819 24 22.1846 23.7973 22.1846 23.5473V1.81061C22.1846 0.812229 21.3723 0 20.374 0ZM2.72049 23.0947V4.52653H18.1201C18.3701 4.52653 18.5728 4.32385 18.5728 4.07388C18.5728 3.8239 18.3701 3.62122 18.1201 3.62122H2.72049V1.81061C2.72049 1.31145 3.12663 0.905306 3.6258 0.905306H20.374C20.8731 0.905306 21.2793 1.31145 21.2793 1.81061V3.62122H19.9354C19.6855 3.62122 19.4828 3.8239 19.4828 4.07388C19.4828 4.32385 19.6855 4.52653 19.9354 4.52653H21.2793V23.0947H2.72049Z"/>
<path d="M11.9998 6.3374C7.87131 6.3374 4.51245 9.6962 4.51245 13.8247C4.51245 17.9533 7.87125 21.3121 11.9998 21.3121C16.1284 21.3121 19.4872 17.9533 19.4872 13.8247C19.4872 9.6962 16.1284 6.3374 11.9998 6.3374ZM11.9998 20.4068C8.37047 20.4068 5.41776 17.454 5.41776 13.8247C5.41776 10.1954 8.37047 7.24271 11.9998 7.24271C14.7558 7.24271 17.1211 8.94547 18.1002 11.354H17.6863C17.4928 11.354 17.3065 11.3848 17.1316 11.4412C16.2119 9.46399 14.2094 8.16685 11.9998 8.16685C8.88004 8.16685 6.34196 10.7049 6.34196 13.8247C6.34196 16.9445 8.88004 19.4826 11.9998 19.4826C14.2095 19.4826 16.2119 18.1855 17.1316 16.2082C17.3065 16.2646 17.4928 16.2955 17.6863 16.2955H18.1002C17.1211 18.704 14.7558 20.4068 11.9998 20.4068ZM17.182 15.2363C17.1734 15.2293 17.1644 15.2227 17.1553 15.2165C16.929 15.0518 16.781 14.7856 16.781 14.4849V13.1646C16.781 12.8639 16.929 12.5978 17.1553 12.433C17.1644 12.4267 17.1734 12.4201 17.182 12.4132C17.3263 12.3161 17.4997 12.2593 17.6863 12.2593H18.3933C18.5162 12.7612 18.5819 13.2854 18.5819 13.8247C18.5819 14.3641 18.5162 14.8882 18.3933 15.3902H17.6863C17.4997 15.3902 17.3262 15.3334 17.182 15.2363ZM16.3604 15.7161C15.6122 17.4391 13.8969 18.5773 11.9998 18.5773C9.37926 18.5773 7.24727 16.4453 7.24727 13.8247C7.24727 11.2042 9.37926 9.07216 11.9998 9.07216C13.8969 9.07216 15.6122 10.2104 16.3604 11.9333C16.0599 12.2567 15.8757 12.6894 15.8757 13.1646V14.4849C15.8757 14.96 16.0599 15.3928 16.3604 15.7161Z" />
<path d="M19.4686 2.26792C19.4686 1.77136 19.0646 1.36731 18.568 1.36731C18.0715 1.36731 17.6675 1.77136 17.6675 2.26792C17.6675 2.76448 18.0715 3.16853 18.568 3.16853C19.0646 3.16853 19.4686 2.76448 19.4686 2.26792Z" />
<path d="M15.8711 1.36731C15.3745 1.36731 14.9705 1.77136 14.9705 2.26792C14.9705 2.76448 15.3745 3.16853 15.8711 3.16853C16.3676 3.16853 16.7716 2.76448 16.7716 2.26792C16.7716 1.77136 16.3676 1.36731 15.8711 1.36731Z" />
<path d="M8.6237 1.81531H4.54982C4.29984 1.81531 4.09717 2.01798 4.09717 2.26796C4.09717 2.51794 4.29984 2.72061 4.54982 2.72061H8.6237C8.87368 2.72061 9.07635 2.51794 9.07635 2.26796C9.07635 2.01798 8.87368 1.81531 8.6237 1.81531Z" />
<path d="M11.302 1.81531H10.4297C10.1797 1.81531 9.97705 2.01798 9.97705 2.26796C9.97705 2.51794 10.1797 2.72061 10.4297 2.72061H11.302C11.552 2.72061 11.7547 2.51794 11.7547 2.26796C11.7547 2.01798 11.552 1.81531 11.302 1.81531Z" />
<path d="M11.9999 9.95862C9.86812 9.95862 8.13379 11.693 8.13379 13.8247C8.13379 14.0747 8.33646 14.2774 8.58644 14.2774C8.83642 14.2774 9.03909 14.0747 9.03909 13.8247C9.03909 12.1921 10.3673 10.8639 11.9999 10.8639C12.2499 10.8639 12.4526 10.6612 12.4526 10.4113C12.4526 10.1613 12.2499 9.95862 11.9999 9.95862Z" />
</svg>
