<svg width="12" height="12" viewBox="0 0 12 12" fill="none" xmlns="http://www.w3.org/2000/svg">
<path d="M10.8281 0.726562H9.79688V0.240234C9.79688 0.110836 9.69164 0.00585938 9.5625 0.00585938C9.43336 0.00585938 9.32812 0.110836 9.32812 0.240234V0.726562H7.41797V0.234375C7.41797 0.104977 7.31273 0 7.18359 0C7.05445 0 6.94922 0.104977 6.94922 0.234375V0.726562H5.05078V0.234375C5.05078 0.104977 4.94555 0 4.81641 0C4.68727 0 4.58203 0.104977 4.58203 0.234375V0.726562H2.67398V0.240234C2.67398 0.110836 2.56875 0.00585938 2.43961 0.00585938C2.31023 0.00585938 2.20523 0.110836 2.20523 0.240234V0.726562H1.17188C0.525703 0.726562 0 1.25227 0 1.89844V10.8281C0 11.4743 0.525703 12 1.17188 12H10.8281C11.4743 12 12 11.4743 12 10.8281V1.89844C12 1.25227 11.4743 0.726562 10.8281 0.726562ZM11.5312 10.8281C11.5312 11.2158 11.2158 11.5312 10.8281 11.5312H1.17188C0.784172 11.5312 0.46875 11.2158 0.46875 10.8281V4.73438H11.5312V10.8281ZM11.5312 4.26562H0.46875V3.79688H11.5312V4.26562ZM11.5312 3.32812H0.46875V1.89844C0.46875 1.51073 0.784172 1.19531 1.17188 1.19531H2.20523V1.64648C2.20523 1.77562 2.31023 1.88086 2.43961 1.88086C2.56875 1.88086 2.67398 1.77562 2.67398 1.64648V1.19531H4.58203V1.64062C4.58203 1.76977 4.68727 1.875 4.81641 1.875C4.94555 1.875 5.05078 1.76977 5.05078 1.64062V1.19531H6.94922V1.64062C6.94922 1.76977 7.05445 1.875 7.18359 1.875C7.31273 1.875 7.41797 1.76977 7.41797 1.64062V1.19531H9.32812V1.64648C9.32812 1.77562 9.43336 1.88086 9.5625 1.88086C9.69164 1.88086 9.79688 1.77562 9.79688 1.64648V1.19531H10.8281C11.2158 1.19531 11.5312 1.51073 11.5312 1.89844V3.32812Z" fill="#5B5D9C"/>
<path d="M9.5625 2.34961C9.43336 2.34961 9.32812 2.45484 9.32812 2.58398C9.32812 2.71312 9.43336 2.81836 9.5625 2.81836C9.69164 2.81836 9.79688 2.71312 9.79688 2.58398C9.79688 2.45484 9.69164 2.34961 9.5625 2.34961Z" fill="#5B5D9C"/>
<path d="M7.18359 2.34375C7.05445 2.34375 6.94922 2.44898 6.94922 2.57812C6.94922 2.70727 7.05445 2.8125 7.18359 2.8125C7.31273 2.8125 7.41797 2.70727 7.41797 2.57812C7.41797 2.44898 7.31273 2.34375 7.18359 2.34375Z" fill="#5B5D9C"/>
<path d="M4.81641 2.34375C4.68727 2.34375 4.58203 2.44898 4.58203 2.57812C4.58203 2.70727 4.68727 2.8125 4.81641 2.8125C4.94555 2.8125 5.05078 2.70727 5.05078 2.57812C5.05078 2.44898 4.94555 2.34375 4.81641 2.34375Z" fill="#5B5D9C"/>
<path d="M2.43994 2.34961C2.31057 2.34961 2.20557 2.45484 2.20557 2.58398C2.20557 2.71312 2.31057 2.81836 2.43994 2.81836C2.56908 2.81836 2.67432 2.71312 2.67432 2.58398C2.67432 2.45484 2.56908 2.34961 2.43994 2.34961Z" fill="#5B5D9C"/>
</svg>
