<svg width="10" height="12" viewBox="0 0 10 12" fill="none" xmlns="http://www.w3.org/2000/svg">
<path d="M4.99991 -0.0250244C2.46055 -0.0221924 0.402734 2.03562 0.399902 4.57498C0.399902 7.05496 4.6709 11.7134 4.85293 11.9106C4.89073 11.9517 4.94405 11.975 4.99991 11.975C5.05577 11.975 5.10899 11.9517 5.14688 11.9106C5.32891 11.7134 9.59991 7.05496 9.59991 4.57498C9.59708 2.03562 7.53927 -0.0221924 4.99991 -0.0250244ZM4.99991 11.4764C4.23995 10.6248 0.799903 6.65321 0.799903 4.57498C0.799903 2.25535 2.68028 0.374976 4.99991 0.374976C7.31954 0.374976 9.19991 2.25535 9.19991 4.57498C9.19991 6.65321 5.75987 10.6248 4.99991 11.4764Z" fill="#5569B8"/>
</svg>
