<svg width="32" height="32" viewBox="0 0 32 32" xmlns="http://www.w3.org/2000/svg" class="twitter-icon">
<path d="M11.1204 30.6711C9.32739 30.6711 7.61499 30.335 6.01709 29.6675C4.39355 28.9893 2.93896 27.98 1.81006 26.7488L0.015625 24.791L2.64087 25.1921C5.09912 25.5676 6.67554 25.3169 7.63208 24.9783C6.86499 24.6155 5.92822 24.0945 4.979 23.3762C2.01636 21.1338 0.342773 18.0312 0.139404 14.4043L0 11.9158L1.12378 13.0657C0.94165 11.8645 0.909912 10.332 1.27881 8.50952L1.86426 5.61768L2.57007 7.2229C2.73389 5.97998 3.14526 4.56079 4.08081 3.20483L5.30029 1.4375L5.76392 3.53394C6.28223 5.87769 7.12402 7.82495 8.26611 9.32153C9.16113 10.4944 10.2454 11.3977 11.4885 12.0066C12.6499 12.5754 13.7454 12.783 14.5076 12.8538C14.47 12.554 14.4512 12.2512 14.4512 11.9468C14.4512 7.94531 17.7068 4.6897 21.7083 4.6897C23.3738 4.6897 25.001 5.26831 26.2898 6.31909C27.415 7.23608 28.2424 8.47681 28.6582 9.85522L32 10.8982L28.9651 13.3674V13.7705C28.9651 18.2085 27.2046 22.3638 24.0076 25.4709C20.9155 28.4763 16.7102 30.3098 12.1663 30.6338C11.8147 30.6587 11.4658 30.6711 11.1204 30.6711ZM5.35938 27.2454C6.8833 28.1682 9.09546 28.9773 12.0332 28.7678C16.1379 28.4753 19.9275 26.8281 22.7039 24.1296C24.0876 22.7844 25.1689 21.2302 25.9172 19.5103C26.6985 17.7144 27.0945 15.7832 27.0945 13.7705V12.4778L28.1169 11.646L27.0864 11.3242L26.9705 10.7927C26.7129 9.61157 26.0513 8.5376 25.1079 7.7688C24.1519 6.9895 22.9443 6.5603 21.7083 6.5603C18.738 6.5603 16.3218 8.97656 16.3218 11.9465C16.3218 12.4861 16.4014 13.019 16.5583 13.53L16.8901 14.6111L15.7661 14.7344C15.6697 14.7449 13.376 14.9788 10.7664 13.7351C9.2395 13.0073 7.91357 11.9246 6.82544 10.5166C5.93042 9.35864 5.19824 7.97949 4.63672 6.39795C4.22949 7.8894 4.34521 9.27173 4.41187 10.0686L4.58032 12.0828L2.93604 10.9077C2.91357 10.8916 2.89136 10.8752 2.8689 10.8586C2.7627 13.5117 3.63696 14.9998 3.70386 15.1091L4.8479 16.8418L2.78198 16.5366C2.70117 16.5249 2.54785 16.4934 2.33203 16.4077C2.89868 18.5762 4.16284 20.4124 6.10815 21.8848C8.03467 23.343 9.90015 23.8679 9.9187 23.873L11.2024 24.2271L10.4341 25.3145C10.2776 25.5359 9.02319 27.1331 5.35938 27.2454Z"/>
</svg>
