<svg width="32" height="32" viewBox="0 0 32 32" fill="none" xmlns="http://www.w3.org/2000/svg">
<path d="M4.68625 20.6863C6.42894 18.9436 8.50319 17.6536 10.7663 16.8726C8.34244 15.2032 6.75 12.4093 6.75 9.25C6.75 4.14956 10.8996 0 16 0C21.1004 0 25.25 4.14956 25.25 9.25C25.25 12.4093 23.6576 15.2032 21.2336 16.8726C23.4967 17.6536 25.571 18.9436 27.3137 20.6863C30.3357 23.7083 32 27.7262 32 32H29.5C29.5 24.5561 23.4439 18.5 16 18.5C8.55606 18.5 2.5 24.5561 2.5 32H0C0 27.7262 1.66431 23.7083 4.68625 20.6863ZM16 16C19.7219 16 22.75 12.972 22.75 9.25C22.75 5.528 19.7219 2.5 16 2.5C12.2781 2.5 9.25 5.528 9.25 9.25C9.25 12.972 12.2781 16 16 16Z" fill="#4F4F4F"/>
</svg>
