<svg width="32" height="32" viewBox="0 0 32 32" xmlns="http://www.w3.org/2000/svg" class="vk-icon">
<path d="M25.6186 17.1189L31.9808 7.50006H22.2235L22.0414 8.20587C21.5739 10.0179 20.6965 12.4737 19.1718 13.8833C18.9833 14.0574 18.8049 14.1973 18.6406 14.3094V7.50006H10.1423V9.3814H10.9362V13.6453C9.9836 12.8074 8.78659 11.2085 8.47311 8.33868L8.38156 7.50006H0L0.287841 8.66607C1.32275 12.8594 2.87523 16.2947 4.90257 18.8765C6.55759 20.9844 8.52878 22.532 10.7612 23.4761C12.7548 24.3193 14.5905 24.5261 15.9113 24.5261C17.1262 24.5261 17.9052 24.3511 17.9706 24.3359L18.6872 24.1689L18.7243 21.5845L21.9154 24.3606H32.0001L25.6186 17.1189ZM16.9008 17.5049L16.8281 22.6016C15.7775 22.6951 13.6962 22.6987 11.3994 21.7029C9.48116 20.8711 7.77731 19.509 6.33518 17.6543C4.68358 15.5303 3.36962 12.7513 2.42187 9.3814H6.72043C7.65085 14.7774 11.3942 16.1736 11.561 16.2329L12.8176 16.6812V9.3814H16.7595V16.6905L17.7492 16.6387C17.8696 16.6323 18.9626 16.5452 20.2533 15.439C21.7199 14.1819 22.8676 12.1463 23.6698 9.3814H28.4808L23.2548 17.282L27.8346 22.479H22.6191L16.9008 17.5049Z"/>
</svg>
