<svg width="32" height="32" viewBox="0 0 32 32" xmlns="http://www.w3.org/2000/svg" class="whatsapp-icon">
<path d="M20.2743 25.1387C19.6845 25.1387 19.0512 25.0679 18.3812 24.9241C16.1295 24.4417 13.6715 23.1809 11.4596 21.374C9.24793 19.5669 7.5243 17.4116 6.60682 15.3049C5.60022 12.9944 5.66126 10.9727 6.7782 9.6123C6.81067 9.57324 6.81067 9.57324 8.7201 7.63306L9.48352 6.85767L13.6993 12.4487L12.2111 14.2612C12.9362 15.2637 13.7931 16.3328 14.8741 17.2161C15.9552 18.0994 17.1752 18.7266 18.3033 19.2383L19.8026 17.4126L26.0321 20.5623L25.4364 21.4407C23.9747 23.5967 23.9747 23.5967 23.9418 23.6365C23.1285 24.6267 21.8588 25.1387 20.2743 25.1387ZM8.20594 10.8259C7.58973 11.6084 7.63245 12.9666 8.3263 14.5598C9.12757 16.3989 10.6622 18.3052 12.6478 19.9272C14.6334 21.5493 16.8095 22.6746 18.775 23.0957C20.4767 23.4604 21.8195 23.2351 22.4689 22.4783C22.5616 22.3418 22.9125 21.8247 23.2877 21.2715L20.2987 19.76L18.8512 21.5225L18.2006 21.2393C16.7907 20.6252 15.163 19.8691 13.6862 18.6628C12.2094 17.4563 11.1456 16.0134 10.2645 14.7559L9.85804 14.1753L11.3163 12.3994L9.29505 9.71875C8.79505 10.2268 8.32508 10.7043 8.20594 10.8259Z"/>
<path d="M0.0209961 32L2.98804 25.2458C1.03125 22.5276 0 19.3286 0 15.9585C0 11.6958 1.66431 7.68823 4.68628 4.67407C7.70825 1.65991 11.7263 0 16 0C20.2737 0 24.2917 1.65991 27.3137 4.67407C30.3357 7.68823 32 11.6958 32 15.9585C32 20.2212 30.3357 24.2288 27.3137 27.2429C24.2917 30.2571 20.2737 31.917 16 31.917C12.949 31.917 10 31.0635 7.44092 29.4438L0.0209961 32ZM7.70703 27.3738L8.09521 27.636C10.4326 29.2131 13.166 30.0471 16 30.0471C19.7729 30.0471 23.3201 28.5815 25.988 25.9207C28.6558 23.2595 30.125 19.7217 30.125 15.9585C30.125 12.1956 28.6558 8.65747 25.9878 5.99658C23.3201 3.33569 19.7729 1.87012 16 1.87012C12.2271 1.87012 8.67993 3.33569 6.01221 5.99658C3.34424 8.65747 1.875 12.1953 1.875 15.9585C1.875 19.0989 2.88916 22.0708 4.80786 24.5525L5.14697 24.9912L3.45728 28.8376L7.70703 27.3738Z"/>
</svg>
